<svg width="48" height="48" viewBox="0 0 48 48" fill="none" xmlns="http://www.w3.org/2000/svg">
<g id="Logo">
<path id="Monogram=True, Type=False" fill-rule="evenodd" clip-rule="evenodd" d="M0 23.5092V4.97555C1.47706 3.13107 3.16344 1.46063 5.02325 0V9.41071C9.41355 3.76467 16.2812 0.130685 24 0.130685C37.2548 0.130685 48 10.8468 48 24.0658C48 37.2151 37.3677 47.8879 24.2093 48V42.99C34.5934 42.8781 42.9767 34.4483 42.9767 24.0657C42.9767 13.6135 34.4806 5.1403 24 5.1403C13.5194 5.1403 5.02326 13.6135 5.02326 24.0657V24.0658H0C2.1352e-07 23.8797 0.00212811 23.6942 0.00636074 23.5092H0ZM36.2791 24.0657C36.2791 30.8289 30.7815 36.3116 24 36.3116C21.2856 36.3116 18.777 35.4332 16.7442 33.946V41.5584C14.9064 40.7745 13.2142 39.7017 11.7209 38.395V24.0658V24.0657C11.7209 17.3025 17.2185 11.8199 24 11.8199C30.7815 11.8199 36.2791 17.3025 36.2791 24.0657ZM31.2558 24.0657C31.2558 20.0692 28.0073 16.8295 24 16.8295C19.9927 16.8295 16.7442 20.0692 16.7442 24.0657C16.7442 28.0621 19.9927 31.3019 24 31.3019C28.0073 31.3019 31.2558 28.0621 31.2558 24.0657Z" fill="#16B8B8"/>
</g>
</svg>
